#!OML:ASF H:\ManfredETheater\Project 1\Capture day 1\Session 1\subject.ASF
:FULLY-SPECIFIED
:DEGREES
156
root 1.15543 15.1134 -13.1077 -182.777 -8.2225 176.537
lowerback 18.2343 -0.592232 -2.23542
upperback 0.480624 -1.28444 1.60658
thorax -9.6459 -0.546147 3.37571
lowerneck -14.6095 -1.88507 0.148832
upperneck 11.7239 -2.56462 -0.25542
head 5.93691 -1.26877 -0.343683
rclavicle -1.88845e-015 2.06736e-014
rhumerus -28.2869 18.0744 -90.6066
rradius 95.9739
rwrist 4.05576
rhand -29.0919 7.3983
rfingers 7.12502
rthumb -2.44051 -22.5675
lclavicle -1.88845e-015 2.06736e-014
lhumerus -17.0995 -3.58681 81.2789
lradius 85.2945
lwrist 7.56843
lhand -29.2247 -8.06866
lfingers 7.12502
lthumb -2.56871 21.8956
rfemur -47.3809 -14.8352 11.8173
rtibia 98.5503
rfoot 7.71219 -29.5768
rtoes 57.1477
lfemur -21.2899 6.88327 -20.3933
ltibia 80.6654
lfoot -35.0178 -13.3652
ltoes -9.15516
157
root 1.14704 15.1095 -13.3607 -182.004 -8.61684 176.361
lowerback 18.2606 -0.666939 -2.70621
upperback 0.365346 -1.48132 1.49083
thorax -9.76592 -0.610762 3.57209
lowerneck -14.8267 -1.98259 0.116228
upperneck 11.1771 -2.71754 0.0417861
head 5.8042 -1.31799 -0.256127
rclavicle -1.63003e-014 7.95139e-015
rhumerus -28.1939 16.2948 -89.6222
rradius 95.7015
rwrist 5.05823
rhand -29.2521 6.89725
rfingers 7.12502
rthumb -2.59521 -23.0667
lclavicle -1.63003e-014 7.95139e-015
lhumerus -15.3466 -3.59515 81.9434
lradius 85.9539
lwrist 7.5536
lhand -29.3546 -8.21668
lfingers 7.12502
lthumb -2.6942 21.746
rfemur -49.4087 -15.1675 12.4514
rtibia 98.1806
rfoot 6.69832 -31.0347
rtoes 56.9522
lfemur -20.4897 6.19454 -20.8036
ltibia 79.8583
lfoot -36.0289 -11.8407
ltoes -10.294
158
root 1.1391 15.1073 -13.6147 -181.215 -8.97967 176.204
lowerback 18.3048 -0.755928 -3.13511
upperback 0.266283 -1.69293 1.37272
thorax -9.87587 -0.685183 3.74623
lowerneck -15.0609 -2.0558 0.0743337
upperneck 10.6002 -2.83717 0.343228
head 5.66566 -1.35356 -0.163076
rclavicle 1.56046e-014 1.82882e-014
rhumerus -28.2272 14.522 -88.6828
rradius 95.155
rwrist 5.64208
rhand -29.2397 6.32567
rfingers 7.12502
rthumb -2.58322 -23.6384
lclavicle 1.56046e-014 1.82882e-014
lhumerus -13.6499 -3.48754 82.596
lradius 86.8168
lwrist 7.38048
lhand -29.6139 -8.21154
lfingers 7.12502
lthumb -2.94459 21.7479
rfemur -51.4606 -15.3217 13.1094
rtibia 97.5762
rfoot 5.73091 -31.9806
rtoes 56.8524
lfemur -19.7137 5.4572 -21.1983
ltibia 79.0168
lfoot -36.8812 -10.3306
ltoes -11.3895
159
root 1.13193 15.1072 -13.8699 -180.41 -9.3178 176.099
lowerback 18.3569 -0.86363 -3.48789
upperback 0.181669 -1.91633 1.26026
thorax -9.97325 -0.769589 3.88627
lowerneck -15.3146 -2.11338 0.00889973
upperneck 10.0026 -2.93526 0.665916
head 5.52496 -1.38069 -0.058121
rclavicle -3.3694e-014 3.10104e-014
rhumerus -28.4137 12.8256 -87.7943
rradius 94.4251
rwrist 5.59526
rhand -29.1234 5.74346
rfingers 7.12502
rthumb -2.47088 -24.222
lclavicle -3.3694e-014 3.10104e-014
lhumerus -12.0284 -3.31055 83.2339
lradius 87.9323
lwrist 7.19562
lhand -29.9585 -8.08505
lfingers 7.12502
lthumb -3.27737 21.8695
rfemur -53.5166 -15.3008 13.8044
rtibia 96.73
rfoot 4.88596 -32.4466
rtoes 56.8768
lfemur -18.9727 4.6892 -21.5219
ltibia 78.1442
lfoot -37.5877 -8.92231
ltoes -12.3906
160
root 1.12546 15.1094 -14.1279 -179.593 -9.63725 176.026
lowerback 18.4072 -0.985083 -3.78311
upperback 0.116606 -2.14838 1.14975
thorax -10.0473 -0.862349 3.99742
lowerneck -15.6015 -2.1632 -0.0846381
upperneck 9.39907 -3.02185 1.00936
head 5.38902 -1.40445 0.0580833
rclavicle 1.42131e-014 1.19271e-014
rhumerus -28.7852 11.254 -86.9518
rradius 93.6206
rwrist 4.92052
rhand -28.9913 5.19586
rfingers 7.12502
rthumb -2.34334 -24.771
lclavicle 1.42131e-014 1.19271e-014
lhumerus -10.4925 -3.10253 83.857
lradius 89.3361
lwrist 7.11632
lhand -30.3074 -7.89955
lfingers 7.12502
lthumb -3.61434 22.0496
rfemur -55.5369 -15.1332 14.4831
rtibia 95.6488
rfoot 4.1642 -32.5103
rtoes 57.0175
lfemur -18.2469 3.90479 -21.7819
ltibia 77.2318
lfoot -38.1726 -7.63986
ltoes -13.3474
161
root 1.12028 15.1138 -14.3892 -178.758 -9.94922 176.004
lowerback 18.4433 -1.11803 -4.00957
upperback 0.0683122 -2.38106 1.05272
thorax -10.0952 -0.959992 4.0833
lowerneck -15.9236 -2.21643 -0.217918
upperneck 8.79378 -3.11041 1.37996
head 5.25973 -1.43137 0.188117
rclavicle 4.48259e-014 1.35174e-014
rhumerus -29.3771 9.83427 -86.144
rradius 92.8526
rwrist 3.82037
rhand -28.9231 4.74702
rfingers 7.12502
rthumb -2.2774 -25.2206
lclavicle 4.48259e-014 1.35174e-014
lhumerus -9.04235 -2.91922 84.4678
lradius 91.0563
lwrist 7.27104
lhand -30.6422 -7.70194
lfingers 7.12502
lthumb -3.93759 22.2414
rfemur -57.5125 -14.8427 15.1562
rtibia 94.3451
rfoot 3.55731 -32.2593
rtoes 57.2624
lfemur -17.5475 3.11269 -21.9365
ltibia 76.2773
lfoot -38.6451 -6.55093
ltoes -14.2182
162
root 1.11637 15.1202 -14.6543 -177.897 -10.2407 176.019
lowerback 18.4632 -1.24843 -4.18268
upperback 0.0278173 -2.5977 0.970001
thorax -10.1273 -1.05311 4.14931
lowerneck -16.2731 -2.27801 -0.394982
upperneck 8.18874 -3.20632 1.77686
head 5.13657 -1.46422 0.33194
rclavicle 2.78299e-014 -1.07344e-014
rhumerus -30.2403 8.57718 -85.3587
rradius 92.2409
rwrist 2.59427
rhand -28.954 4.47214
rfingers 7.12502
rthumb -2.30729 -25.4951
lclavicle 2.78299e-014 -1.07344e-014
lhumerus -7.67438 -2.80346 85.0654
lradius 93.0914
lwrist 7.69969
lhand -30.9316 -7.56129
lfingers 7.12502
lthumb -4.21708 22.3767
rfemur -59.4468 -14.4461 15.8021
rtibia 92.8381
rfoot 3.0578 -31.7904
rtoes 57.6047
lfemur -16.8731 2.33897 -21.9895
ltibia 75.2694
lfoot -39.0313 -5.67743
ltoes -15.0378
163
root 1.11404 15.1284 -14.9238 -177.01 -10.5383 176.06
lowerback 18.4759 -1.37402 -4.31225
upperback -0.00873897 -2.79675 0.907056
thorax -10.1531 -1.13989 4.20716
lowerneck -16.6449 -2.35896 -0.626515
upperneck 7.5812 -3.32075 2.19493
head 5.01813 -1.50901 0.48872
rclavicle -3.17062e-014 1.31198e-014
rhumerus -31.4101 7.47858 -84.5779
rradius 91.9032
rwrist 1.52788
rhand -29.0773 4.34454
rfingers 7.12502
rthumb -2.42633 -25.6214
lclavicle -3.17062e-014 1.31198e-014
lhumerus -6.37813 -2.79724 85.6483
lradius 95.423
lwrist 8.36123
lhand -31.1657 -7.50551
lfingers 7.12502
lthumb -4.44314 22.4279
rfemur -61.3174 -13.997 16.4032
rtibia 91.1522
rfoot 2.64196 -31.1999
rtoes 58.026
lfemur -16.2132 1.57475 -21.9425
ltibia 74.1969
lfoot -39.3406 -5.02266
ltoes -15.817
164
root 1.11294 15.1386 -15.1987 -176.093 -10.8318 176.112
lowerback 18.4789 -1.48322 -4.41346
upperback -0.0481383 -2.96528 0.864987
thorax -10.1793 -1.21278 4.26344
lowerneck -17.027 -2.4603 -0.903071
upperneck 6.96648 -3.45368 2.61282
head 4.90068 -1.56678 0.650429
rclavicle 1.74931e-014 -1.59028e-015
rhumerus -32.9221 6.52657 -83.7903
rradius 91.9185
rwrist 0.825114
rhand -29.2103 4.4416
rfingers 7.12502
rthumb -2.55482 -25.5228
lclavicle 1.74931e-014 -1.59028e-015
lhumerus -5.1404 -2.92904 86.2076
lradius 98.007
lwrist 9.14846
lhand -31.3618 -7.56732
lfingers 7.12502
lthumb -4.63253 22.362
rfemur -63.1231 -13.5171 16.9422
rtibia 89.3103
rfoot 2.30682 -30.5676
rtoes 58.4809
lfemur -15.5555 0.841366 -21.8138
ltibia 73.042
lfoot -39.5812 -4.56515
ltoes -16.6138
165
root 1.11276 15.1509 -15.4796 -175.145 -11.1237 176.16
lowerback 18.4769 -1.57313 -4.49483
upperback -0.0950905 -3.10107 0.845564
thorax -10.2138 -1.26973 4.32479
lowerneck -17.4035 -2.57719 -1.21266
upperneck 6.33522 -3.59796 3.0077
head 4.7782 -1.63517 0.808924
rclavicle -7.2457e-014 -1.19271e-015
rhumerus -34.7909 5.72067 -82.9979
rradius 92.3455
rwrist 0.520022
rhand -29.298 4.73936
rfingers 7.12502
rthumb -2.6395 -25.2241
lclavicle -7.2457e-014 -1.19271e-015
lhumerus -3.94563 -3.20702 86.7292
lradius 100.786
lwrist 9.91394
lhand -31.546 -7.77629
lfingers 7.12502
lthumb -4.81032 22.1491
rfemur -64.8536 -13.0368 17.4102
rtibia 87.3363
rfoot 2.06873 -29.9532
rtoes 58.9496
lfemur -14.8882 0.149924 -21.6203
ltibia 71.7905
lfoot -39.7474 -4.32117
ltoes -17.3277
166
root 1.11327 15.1662 -15.7672 -174.171 -11.433 176.195
lowerback 18.4753 -1.6513 -4.55707
upperback -0.155244 -3.21401 0.851595
thorax -10.2648 -1.31475 4.39784
lowerneck -17.752 -2.70212 -1.5448
upperneck 5.68359 -3.7432 3.35914
head 4.64519 -1.70995 0.957451
rclavicle -4.07509e-015 -4.77083e-015
rhumerus -37.0075 5.06567 -82.2063
rradius 93.1891
rwrist 0.553993
rhand -29.2823 5.20492
rfingers 7.12502
rthumb -2.62433 -24.7587
lclavicle -4.07509e-015 -4.77083e-015
lhumerus -2.79631 -3.62203 87.1937
lradius 103.706
lwrist 10.4867
lhand -31.7148 -8.11601
lfingers 7.12502
lthumb -4.97331 21.8056
rfemur -66.4902 -12.5931 17.798
rtibia 85.2504
rfoot 1.90847 -29.3994
rtoes 59.3867
lfemur -14.1972 -0.504488 -21.3752
ltibia 70.4274
lfoot -39.8262 -4.24639
ltoes -18.029
